<svg width="500" height="274" viewBox="0 0 500 274" fill="none" xmlns="http://www.w3.org/2000/svg">
<path d="M491.466 119.689L429.16 78.0852C427.481 76.9643 425.388 77.7425 424.483 79.8233L404.6 125.58C403.696 127.661 404.323 130.256 406.002 131.377L468.308 172.982C469.987 174.102 472.08 173.324 472.985 171.243L492.868 125.487C493.772 123.406 493.145 120.81 491.466 119.689Z" fill="white"/>
<path opacity="0.7" d="M491.466 119.689L429.16 78.0852C427.481 76.9643 425.388 77.7425 424.483 79.8233L404.6 125.58C403.696 127.661 404.323 130.256 406.002 131.377L468.308 172.982C469.987 174.102 472.08 173.324 472.985 171.243L492.868 125.487C493.772 123.406 493.145 120.81 491.466 119.689Z" fill="white"/>
<path opacity="0.2" d="M422.863 83.6006L442.25 128.721C442.995 130.439 444.133 131.846 445.523 132.762C446.912 133.679 448.489 134.063 450.055 133.868L490.606 128.907L449.33 136.442C447.526 136.773 445.684 136.372 444.079 135.299C442.474 134.226 441.192 132.538 440.424 130.488L422.863 83.6006Z" fill="black"/>
<path d="M375.557 75.2583C376.233 58.0166 386.54 23.2541 399.073 12.6176C411.606 1.98106 403.35 16.7109 403.35 16.7109C403.35 16.7109 415.233 2.38418 421.487 2.81832C427.741 3.25247 421.487 12.1214 421.487 12.1214C421.487 12.1214 434.37 2.29115 440.299 2.81832C446.228 3.3455 440.299 11.8423 440.299 11.8423C440.299 11.8423 450.856 2.53923 455.134 6.91168C459.411 11.2841 400.373 59.6292 393.794 79.2897C387.215 98.9502 374.882 92.6551 375.557 75.2583Z" fill="white"/>
<path opacity="0.4" d="M375.557 75.2583C376.233 58.0166 386.54 23.2541 399.073 12.6176C411.606 1.98106 403.35 16.7109 403.35 16.7109C403.35 16.7109 415.233 2.38418 421.487 2.81832C427.741 3.25247 421.487 12.1214 421.487 12.1214C421.487 12.1214 434.37 2.29115 440.299 2.81832C446.228 3.3455 440.299 11.8423 440.299 11.8423C440.299 11.8423 450.856 2.53923 455.134 6.91168C459.411 11.2841 400.373 59.6292 393.794 79.2897C387.215 98.9502 374.882 92.6551 375.557 75.2583Z" fill="white"/>
<path d="M426.29 72.6533L434.17 78.8554C434.295 78.9509 434.389 79.0958 434.439 79.2664C434.489 79.4371 434.491 79.6236 434.445 79.7957C434.398 79.9679 434.306 80.1157 434.184 80.2152C434.062 80.3146 433.916 80.36 433.77 80.3439L425.489 79.5376L426.19 87.4142C426.21 87.5999 426.182 87.7888 426.108 87.9527C426.035 88.1165 425.921 88.2466 425.783 88.3233C425.645 88.4001 425.491 88.4195 425.343 88.3786C425.195 88.3377 425.063 88.2387 424.964 88.0964L420.186 81.4602L426.29 72.6533Z" fill="white"/>
<path opacity="0.3" d="M426.29 72.6533L434.17 78.8554C434.295 78.9509 434.389 79.0958 434.439 79.2664C434.489 79.4371 434.491 79.6236 434.445 79.7957C434.398 79.9679 434.306 80.1157 434.184 80.2152C434.062 80.3146 433.916 80.36 433.77 80.3439L425.489 79.5376L426.19 87.4142C426.21 87.5999 426.182 87.7888 426.108 87.9527C426.035 88.1165 425.921 88.2466 425.783 88.3233C425.645 88.4001 425.491 88.4195 425.343 88.3786C425.195 88.3377 425.063 88.2387 424.964 88.0964L420.186 81.4602L426.29 72.6533Z" fill="white"/>
<path d="M315.594 33.829C315.594 33.829 326.501 24.5259 342.986 30.5419C342.986 30.5419 347.714 57.5518 360.698 66.5448C367.827 71.4755 385.264 71.0413 399.073 65.5215C415.458 58.9473 423.463 58.9473 426.44 66.5448C429.417 74.1423 426.115 82.05 413.582 85.7402C401.049 89.4304 391.067 116.409 368.378 116.75C345.688 117.092 333.63 88.8412 339.359 64.033C333.935 51.3507 325.686 40.8669 315.594 33.829Z" fill="white"/>
<path opacity="0.5" d="M315.594 33.829C315.594 33.829 326.501 24.5259 342.986 30.5419C342.986 30.5419 347.714 57.5518 360.698 66.5448C367.827 71.4755 385.264 71.0413 399.073 65.5215C415.458 58.9473 423.463 58.9473 426.44 66.5448C429.417 74.1423 426.115 82.05 413.582 85.7402C401.049 89.4304 391.067 116.409 368.378 116.75C345.688 117.092 333.63 88.8412 339.359 64.033C333.935 51.3507 325.686 40.8669 315.594 33.829Z" fill="white"/>
<path d="M420.186 71.6611C420.186 71.9371 420.12 72.2069 419.996 72.4364C419.873 72.6659 419.697 72.8447 419.491 72.9504C419.285 73.056 419.059 73.0836 418.841 73.0297C418.622 72.9759 418.422 72.843 418.264 72.6478C418.107 72.4527 418 72.204 417.956 71.9333C417.913 71.6627 417.935 71.382 418.02 71.127C418.105 70.8721 418.25 70.6541 418.435 70.5008C418.62 70.3475 418.838 70.2656 419.06 70.2656C419.359 70.2656 419.645 70.4127 419.856 70.6744C420.067 70.9361 420.186 71.291 420.186 71.6611Z" fill="#263238"/>
<path d="M363.099 94.3608C349.666 98.8883 319.796 97.4618 307.789 85.988C295.781 74.5142 309.59 79.7859 309.59 79.7859C309.59 79.7859 294.955 70.2037 293.329 62.6992C291.703 55.1948 300.534 59.7843 300.534 59.7843C300.534 59.7843 289.027 47.6593 287.526 40.5269C286.025 33.3945 294.43 37.736 294.43 37.736C294.43 37.736 283.948 28.1848 286.075 21.7657C288.201 15.3465 343.462 70.0487 360.548 71.7542C377.634 73.4598 376.708 89.7712 363.099 94.3608Z" fill="white"/>
<path opacity="0.4" d="M363.099 94.3608C349.666 98.8883 319.796 97.4618 307.789 85.988C295.781 74.5142 309.59 79.7859 309.59 79.7859C309.59 79.7859 294.955 70.2037 293.329 62.6992C291.703 55.1948 300.534 59.7843 300.534 59.7843C300.534 59.7843 289.027 47.6593 287.526 40.5269C286.025 33.3945 294.43 37.736 294.43 37.736C294.43 37.736 283.948 28.1848 286.075 21.7657C288.201 15.3465 343.462 70.0487 360.548 71.7542C377.634 73.4598 376.708 89.7712 363.099 94.3608Z" fill="white"/>
<path d="M275.043 18.913C274.944 18.9432 274.841 18.9432 274.743 18.913C272.416 17.8897 270.04 16.9284 267.638 16.0291C267.4 15.9361 267.202 15.7313 267.085 15.4588C266.968 15.1862 266.942 14.8676 267.013 14.5716C267.088 14.2772 267.253 14.031 267.473 13.8861C267.693 13.7411 267.949 13.7089 268.188 13.7963C270.69 14.6956 273.016 15.6879 275.368 16.8973C275.578 16.9861 275.754 17.165 275.867 17.4016C275.979 17.6382 276.019 17.9169 275.98 18.187C275.94 18.4572 275.824 18.7009 275.652 18.8739C275.48 19.0469 275.264 19.1378 275.043 19.1301V18.913Z" fill="white"/>
<path d="M123.845 270.623C123.597 270.623 123.359 270.503 123.181 270.289C123.004 270.074 122.901 269.783 122.894 269.475C122.894 269.168 122.991 268.873 123.164 268.653C123.337 268.433 123.572 268.305 123.82 268.297C128.797 268.21 133.759 267.608 138.655 266.498C138.9 266.444 139.152 266.511 139.358 266.685C139.564 266.859 139.707 267.126 139.755 267.429C139.781 267.58 139.781 267.735 139.757 267.886C139.732 268.038 139.684 268.181 139.614 268.309C139.544 268.436 139.454 268.544 139.349 268.628C139.244 268.711 139.127 268.767 139.005 268.793C134.002 269.928 128.931 270.54 123.845 270.623ZM108.835 269.63C103.787 268.963 98.7754 267.927 93.8257 266.529C93.5807 266.463 93.3669 266.278 93.231 266.017C93.0951 265.756 93.0481 265.438 93.1002 265.134C93.1596 264.836 93.3105 264.579 93.5208 264.416C93.731 264.254 93.984 264.2 94.2259 264.266C99.0974 265.626 104.024 266.661 108.985 267.367C109.208 267.412 109.41 267.554 109.556 267.767C109.702 267.98 109.782 268.25 109.782 268.53C109.782 268.809 109.702 269.079 109.556 269.293C109.41 269.506 109.208 269.647 108.985 269.692L108.835 269.63ZM153.289 263.428C153.109 263.429 152.933 263.366 152.782 263.244C152.631 263.123 152.511 262.95 152.438 262.746C152.385 262.606 152.354 262.454 152.349 262.299C152.344 262.145 152.364 261.99 152.409 261.845C152.453 261.7 152.521 261.568 152.608 261.456C152.694 261.345 152.799 261.256 152.914 261.196C157.457 258.768 161.675 255.495 165.422 251.489C165.613 251.308 165.853 251.224 166.093 251.254C166.332 251.283 166.554 251.425 166.713 251.649C166.872 251.874 166.956 252.165 166.948 252.463C166.941 252.761 166.842 253.045 166.673 253.257C162.775 257.402 158.399 260.799 153.689 263.335C153.551 263.43 153.397 263.484 153.239 263.49L153.289 263.428ZM79.5164 261.32C79.4179 261.35 79.3148 261.35 79.2162 261.32C74.4632 259.366 69.6851 257.071 65.0571 254.559C64.852 254.414 64.6979 254.179 64.6248 253.901C64.5517 253.623 64.5648 253.321 64.6616 253.053C64.7584 252.786 64.9319 252.573 65.1484 252.456C65.3649 252.339 65.6088 252.326 65.8326 252.42C70.3855 254.901 75.0886 257.164 79.8166 259.118C80.0507 259.223 80.2421 259.438 80.3497 259.716C80.4572 259.995 80.4724 260.314 80.392 260.606C80.3213 260.821 80.1997 261.004 80.0434 261.131C79.8872 261.259 79.7034 261.324 79.5164 261.32ZM51.9987 246.249C51.8519 246.304 51.6952 246.304 51.5484 246.249C47.0705 243.148 42.7177 239.799 38.6651 236.294C38.5649 236.207 38.4796 236.096 38.4141 235.967C38.3485 235.839 38.304 235.696 38.2831 235.546C38.2622 235.396 38.2653 235.243 38.2922 235.095C38.3191 234.946 38.3693 234.806 38.44 234.682C38.5106 234.558 38.6003 234.452 38.7039 234.371C38.8075 234.289 38.923 234.234 39.0438 234.208C39.1645 234.182 39.2883 234.186 39.4079 234.22C39.5275 234.253 39.6406 234.315 39.7408 234.403C43.7434 237.845 48.0211 241.163 52.474 244.233C52.5818 244.307 52.6765 244.407 52.7526 244.527C52.8287 244.647 52.8848 244.785 52.9174 244.933C52.95 245.08 52.9586 245.234 52.9426 245.385C52.9266 245.537 52.8864 245.683 52.8242 245.815C52.7185 246.016 52.5668 246.173 52.3886 246.267C52.2105 246.361 52.0138 246.387 51.8236 246.342L51.9987 246.249ZM175.678 239.147C175.532 239.203 175.375 239.203 175.228 239.147C175.12 239.073 175.026 238.973 174.949 238.853C174.873 238.733 174.817 238.595 174.785 238.448C174.752 238.301 174.744 238.147 174.76 237.995C174.776 237.844 174.816 237.698 174.878 237.566C175.653 235.891 176.379 234.155 177.029 232.356C178.422 228.559 179.511 224.602 180.281 220.541C180.346 220.241 180.502 219.983 180.716 219.821C180.931 219.66 181.187 219.607 181.432 219.673C181.673 219.753 181.879 219.948 182.006 220.215C182.132 220.481 182.169 220.799 182.107 221.099C181.291 225.294 180.161 229.384 178.73 233.317C178.055 235.178 177.304 237.008 176.504 238.744C176.397 238.943 176.244 239.097 176.066 239.185C175.887 239.274 175.691 239.293 175.503 239.24L175.678 239.147ZM27.3328 224.821C27.1126 224.817 26.9004 224.718 26.7324 224.542C22.9227 220.37 19.3533 215.873 16.0506 211.083C15.8779 210.863 15.7812 210.568 15.7812 210.261C15.7813 209.954 15.8779 209.66 16.0506 209.44C16.2238 209.227 16.4575 209.108 16.701 209.108C16.9445 209.108 17.1781 209.227 17.3514 209.44C20.5944 214.129 24.0968 218.533 27.8331 222.619C28.0058 222.839 28.1024 223.134 28.1024 223.441C28.1024 223.748 28.0058 224.042 27.8331 224.262C27.7711 224.43 27.6774 224.577 27.5598 224.691C27.4422 224.804 27.3043 224.88 27.1577 224.914L27.3328 224.821ZM182.883 203.299C182.759 203.3 182.637 203.269 182.523 203.209C182.409 203.15 182.306 203.062 182.219 202.953C182.133 202.843 182.066 202.713 182.021 202.57C181.976 202.427 181.954 202.274 181.957 202.121C181.921 195.954 181.461 189.802 180.582 183.732C180.537 183.428 180.591 183.115 180.732 182.86C180.872 182.604 181.088 182.428 181.332 182.368C181.58 182.322 181.833 182.396 182.038 182.575C182.243 182.754 182.384 183.024 182.433 183.329C183.333 189.532 183.802 195.819 183.834 202.121C183.834 202.434 183.733 202.733 183.555 202.954C183.377 203.175 183.135 203.299 182.883 203.299ZM177.88 166.521C177.677 166.519 177.481 166.436 177.319 166.286C177.157 166.135 177.038 165.924 176.979 165.684C175.703 160.257 174.127 154.489 172.201 148.039C172.153 147.895 172.13 147.74 172.132 147.584C172.134 147.429 172.161 147.275 172.213 147.133C172.264 146.99 172.339 146.863 172.431 146.757C172.524 146.652 172.633 146.571 172.751 146.52C172.984 146.418 173.239 146.433 173.463 146.56C173.687 146.687 173.862 146.917 173.952 147.202C175.904 153.714 177.48 159.606 178.78 165.002C178.851 165.298 178.825 165.616 178.708 165.889C178.591 166.161 178.392 166.366 178.155 166.459L177.88 166.521ZM167.523 131.325C167.35 131.326 167.179 131.266 167.033 131.15C166.886 131.035 166.77 130.869 166.698 130.673C165.097 125.712 162.92 120.006 160.644 113.959V113.649C160.579 113.378 160.594 113.088 160.687 112.831C160.779 112.573 160.944 112.365 161.15 112.245C161.356 112.125 161.59 112.1 161.809 112.176C162.028 112.251 162.218 112.422 162.345 112.656V112.967C164.646 119.169 166.798 124.781 168.399 129.65C168.5 129.942 168.504 130.272 168.41 130.568C168.317 130.864 168.133 131.102 167.898 131.232L167.523 131.325ZM155.015 97.2133C154.831 97.2205 154.649 97.1594 154.493 97.0379C154.337 96.9164 154.214 96.7399 154.14 96.5311C151.888 90.0499 150.087 84.313 148.661 79.0103C148.581 78.7182 148.596 78.3986 148.703 78.1203C148.811 77.8419 149.002 77.627 149.236 77.5218C149.475 77.4235 149.736 77.4467 149.961 77.5862C150.186 77.7257 150.357 77.9702 150.437 78.266C151.838 83.5068 153.614 89.1816 155.866 95.6008C155.915 95.741 155.941 95.892 155.942 96.0449C155.943 96.1978 155.92 96.3495 155.873 96.491C155.827 96.6326 155.758 96.7612 155.671 96.8693C155.583 96.9773 155.48 97.0627 155.365 97.1203C155.282 97.2302 155.179 97.3151 155.065 97.3684L155.015 97.2133ZM145.859 61.6755C145.635 61.6717 145.42 61.57 145.25 61.3885C145.081 61.207 144.969 60.9572 144.934 60.6832C144.504 57.3605 144.287 54.0009 144.283 50.6358C144.262 47.6293 144.48 44.6276 144.934 41.6739C145.006 41.3988 145.157 41.1661 145.358 41.0203C145.56 40.8745 145.798 40.8257 146.027 40.8831C146.255 40.9406 146.459 41.1004 146.599 41.332C146.739 41.5636 146.805 41.8508 146.785 42.139C146.352 44.939 146.142 47.785 146.159 50.6358C146.168 53.8863 146.377 57.1312 146.785 60.3421C146.815 60.6446 146.752 60.95 146.608 61.1972C146.464 61.4445 146.25 61.6153 146.009 61.6755H145.859ZM152.388 26.4478C152.171 26.4552 151.958 26.3673 151.788 26.1998C151.615 25.9798 151.519 25.6849 151.519 25.378C151.519 25.071 151.615 24.7762 151.788 24.5562C155.146 19.6925 159.232 15.6804 163.821 12.7413C164.04 12.5966 164.297 12.5643 164.535 12.6513C164.774 12.7382 164.975 12.9375 165.097 13.2064C165.205 13.4837 165.224 13.8017 165.149 14.0956C165.075 14.3895 164.913 14.6371 164.696 14.788C160.327 17.5889 156.436 21.4114 153.239 26.0447C153.156 26.216 153.039 26.3577 152.898 26.4556C152.758 26.5534 152.599 26.6042 152.438 26.6029L152.388 26.4478ZM253.253 11.2528H253.053C248.25 10.0124 243.272 8.95804 238.244 8.15177C238.122 8.13273 238.004 8.08375 237.897 8.00769C237.791 7.93162 237.698 7.82999 237.623 7.70873C237.548 7.58748 237.494 7.44902 237.463 7.30147C237.432 7.15391 237.426 7.00022 237.443 6.84934C237.459 6.6981 237.498 6.55215 237.559 6.42005C237.621 6.28795 237.703 6.17231 237.801 6.07993C237.898 5.98754 238.01 5.92025 238.129 5.88198C238.248 5.8437 238.372 5.83522 238.494 5.85702C243.497 6.66328 248.5 7.71763 253.504 8.95804C253.728 9.02209 253.926 9.18489 254.061 9.41622C254.196 9.64756 254.258 9.9317 254.237 10.2159C254.215 10.5 254.111 10.7649 253.944 10.9613C253.777 11.1578 253.558 11.2723 253.328 11.2838L253.253 11.2528ZM178.205 8.61693C178.083 8.63322 177.96 8.61965 177.843 8.57704C177.726 8.53443 177.616 8.46361 177.521 8.36858C177.426 8.27355 177.347 8.1562 177.288 8.02323C177.229 7.89026 177.192 7.74426 177.179 7.59358C177.166 7.44291 177.177 7.2905 177.211 7.14506C177.246 6.99962 177.303 6.86399 177.38 6.74593C177.456 6.62787 177.551 6.52967 177.658 6.45696C177.766 6.38425 177.883 6.33844 178.005 6.32215C182.945 4.94823 187.963 4.0463 193.015 3.62427C193.263 3.60713 193.506 3.71113 193.693 3.914C193.88 4.11687 193.996 4.40247 194.015 4.70963C194.025 4.86285 194.011 5.01705 193.972 5.16307C193.933 5.3091 193.871 5.44399 193.789 5.55969C193.708 5.6754 193.608 5.76956 193.496 5.83662C193.385 5.90368 193.263 5.94225 193.14 5.95004C188.172 6.34823 183.237 7.22957 178.38 8.58591L178.205 8.61693ZM223.234 6.44619C218.881 6.07407 213.703 5.67093 208.224 5.54689C207.977 5.53881 207.741 5.41111 207.568 5.19099C207.395 4.97087 207.299 4.67574 207.299 4.36851C207.299 4.21519 207.323 4.0634 207.371 3.92214C207.42 3.78087 207.49 3.65299 207.579 3.54603C207.667 3.43907 207.772 3.35521 207.887 3.29941C208.003 3.24361 208.126 3.21698 208.249 3.22112C213.778 3.37617 219.006 3.7483 223.259 4.12042C223.383 4.12821 223.504 4.16679 223.616 4.23384C223.727 4.3009 223.827 4.39507 223.909 4.51077C223.99 4.62648 224.052 4.76136 224.091 4.90739C224.13 5.05342 224.145 5.20762 224.135 5.36084C224.153 5.64085 224.09 5.91971 223.957 6.14714C223.824 6.37458 223.629 6.53563 223.409 6.60126L223.234 6.44619Z" fill="white"/>
<path d="M7.8705 196.198C7.70274 196.202 7.53731 196.149 7.3919 196.045C7.24649 195.941 7.12656 195.791 7.04496 195.609C5.77985 192.886 4.65197 190.069 3.66779 187.174C3.6187 187.034 3.59271 186.883 3.59136 186.73C3.59002 186.577 3.61333 186.425 3.65994 186.284C3.70655 186.142 3.77552 186.014 3.86278 185.906C3.95005 185.798 4.05387 185.712 4.16812 185.655C4.39739 185.54 4.6536 185.541 4.88243 185.657C5.11126 185.772 5.29472 185.994 5.3939 186.275C6.35994 189.079 7.45408 191.812 8.67102 194.462C8.76448 194.634 8.8172 194.836 8.82324 195.044C8.82927 195.251 8.78837 195.457 8.70516 195.638C8.62195 195.818 8.49972 195.966 8.35225 196.065C8.20479 196.164 8.03794 196.21 7.8705 196.198Z" fill="white"/>
</svg>
