<?xml version="1.0" encoding="UTF-8" standalone="no"?>
<svg
   xmlns:dc="http://purl.org/dc/elements/1.1/"
   xmlns:cc="http://creativecommons.org/ns#"
   xmlns:rdf="http://www.w3.org/1999/02/22-rdf-syntax-ns#"
   xmlns:svg="http://www.w3.org/2000/svg"
   xmlns="http://www.w3.org/2000/svg"
   xmlns:sodipodi="http://sodipodi.sourceforge.net/DTD/sodipodi-0.dtd"
   xmlns:inkscape="http://www.inkscape.org/namespaces/inkscape"
   viewBox="0 0 499.24301 273.13101"
   version="1.1"
   id="svg3821"
   sodipodi:docname="Contact us-rafiki2.svg"
   width="499.24301"
   height="273.13101"
   inkscape:version="0.92.5 (2060ec1f9f, 2020-04-08)">
  <metadata
     id="metadata3827">
    <rdf:RDF>
      <cc:Work
         rdf:about="">
        <dc:format>image/svg+xml</dc:format>
        <dc:type
           rdf:resource="http://purl.org/dc/dcmitype/StillImage" />
        <dc:title></dc:title>
      </cc:Work>
    </rdf:RDF>
  </metadata>
  <defs
     id="defs3825" />
  <sodipodi:namedview
     pagecolor="#ffffff"
     bordercolor="#666666"
     borderopacity="1"
     objecttolerance="10"
     gridtolerance="10"
     guidetolerance="10"
     inkscape:pageopacity="0"
     inkscape:pageshadow="2"
     inkscape:window-width="1366"
     inkscape:window-height="704"
     id="namedview3823"
     showgrid="false"
     inkscape:zoom="0.94236332"
     inkscape:cx="250"
     inkscape:cy="122.66058"
     inkscape:window-x="0"
     inkscape:window-y="27"
     inkscape:window-maximized="1"
     inkscape:current-layer="svg3821" />
  <g
     id="freepik--Bird--inject-5"
     transform="matrix(2.5016116,0,0,3.1010283,-138.12353,-330.97621)">
    <rect
       x="219.08"
       y="137.45"
       width="31.049999"
       height="19.52"
       rx="1.38"
       transform="rotate(28.31,234.59365,147.18509)"
       style="fill:#fc6226"
       id="rect3790" />
    <rect
       x="219.08"
       y="137.45"
       width="31.049999"
       height="19.52"
       rx="1.38"
       transform="rotate(28.31,234.59365,147.18509)"
       style="opacity:0.7;isolation:isolate;fill:#ffffff"
       id="rect3792" />
    <path
       d="m 224.25,133.69 7.75,14.55 a 3.18,3.18 0 0 0 3.12,1.66 l 16.21,-1.6 -16.5,2.43 a 3.38,3.38 0 0 1 -3.56,-1.92 z"
       style="opacity:0.2;isolation:isolate"
       id="path3794"
       inkscape:connector-curvature="0" />
    <path
       d="m 205.34,131 c 0.27,-5.56 4.39,-16.77 9.4,-20.2 5.01,-3.43 1.71,1.32 1.71,1.32 0,0 4.75,-4.62 7.25,-4.48 2.5,0.14 0,3 0,3 0,0 5.15,-3.17 7.52,-3 2.37,0.17 0,2.91 0,2.91 0,0 4.22,-3 5.93,-1.59 1.71,1.41 -21.89,17 -24.52,23.34 -2.63,6.34 -7.56,4.31 -7.29,-1.3 z"
       style="fill:#fc6226"
       id="path3796"
       inkscape:connector-curvature="0" />
    <path
       d="m 205.34,131 c 0.27,-5.56 4.39,-16.77 9.4,-20.2 5.01,-3.43 1.71,1.32 1.71,1.32 0,0 4.75,-4.62 7.25,-4.48 2.5,0.14 0,3 0,3 0,0 5.15,-3.17 7.52,-3 2.37,0.17 0,2.91 0,2.91 0,0 4.22,-3 5.93,-1.59 1.71,1.41 -21.89,17 -24.52,23.34 -2.63,6.34 -7.56,4.31 -7.29,-1.3 z"
       style="opacity:0.4;isolation:isolate;fill:#ffffff"
       id="path3798"
       inkscape:connector-curvature="0" />
    <path
       d="m 225.62,130.16 3.15,2 a 0.26,0.26 0 0 1 -0.16,0.48 l -3.31,-0.26 0.28,2.54 a 0.28,0.28 0 0 1 -0.49,0.22 L 223.18,133 Z"
       style="fill:#fc6226"
       id="path3800"
       inkscape:connector-curvature="0" />
    <path
       d="m 225.62,130.16 3.15,2 a 0.26,0.26 0 0 1 -0.16,0.48 l -3.31,-0.26 0.28,2.54 a 0.28,0.28 0 0 1 -0.49,0.22 L 223.18,133 Z"
       style="opacity:0.3;isolation:isolate;fill:#ffffff"
       id="path3802"
       inkscape:connector-curvature="0" />
    <path
       d="m 181.37,117.64 c 0,0 4.36,-3 10.95,-1.06 0,0 1.89,8.71 7.08,11.61 2.85,1.59 9.82,1.45 15.34,-0.33 6.55,-2.12 9.75,-2.12 10.94,0.33 1.19,2.45 -0.13,5 -5.14,6.19 -5.01,1.19 -9,9.89 -18.07,10 -9.07,0.11 -13.89,-9 -11.6,-17 a 24.16,24.16 0 0 0 -9.5,-9.74 z"
       style="fill:#fc6226"
       id="path3804"
       inkscape:connector-curvature="0" />
    <path
       d="m 181.37,117.64 c 0,0 4.36,-3 10.95,-1.06 0,0 1.89,8.71 7.08,11.61 2.85,1.59 9.82,1.45 15.34,-0.33 6.55,-2.12 9.75,-2.12 10.94,0.33 1.19,2.45 -0.13,5 -5.14,6.19 -5.01,1.19 -9,9.89 -18.07,10 -9.07,0.11 -13.89,-9 -11.6,-17 a 24.16,24.16 0 0 0 -9.5,-9.74 z"
       style="opacity:0.5;isolation:isolate;fill:#ffffff"
       id="path3806"
       inkscape:connector-curvature="0" />
    <path
       d="m 223.18,129.84 a 0.45,0.45 0 1 1 -0.45,-0.45 0.45,0.45 0 0 1 0.45,0.45 z"
       style="fill:#263238"
       id="path3808"
       inkscape:connector-curvature="0" />
    <path
       d="m 200.36,137.16 c -5.37,1.46 -17.31,1 -22.11,-2.7 -4.8,-3.7 0.72,-2 0.72,-2 0,0 -5.85,-3.09 -6.5,-5.51 -0.65,-2.42 2.88,-0.94 2.88,-0.94 0,0 -4.6,-3.91 -5.2,-6.21 -0.6,-2.3 2.76,-0.9 2.76,-0.9 0,0 -4.19,-3.08 -3.34,-5.15 0.85,-2.07 22.94,15.57 29.77,16.12 6.83,0.55 6.46,5.81 1.02,7.29 z"
       style="fill:#fc6226"
       id="path3810"
       inkscape:connector-curvature="0" />
    <path
       d="m 200.36,137.16 c -5.37,1.46 -17.31,1 -22.11,-2.7 -4.8,-3.7 0.72,-2 0.72,-2 0,0 -5.85,-3.09 -6.5,-5.51 -0.65,-2.42 2.88,-0.94 2.88,-0.94 0,0 -4.6,-3.91 -5.2,-6.21 -0.6,-2.3 2.76,-0.9 2.76,-0.9 0,0 -4.19,-3.08 -3.34,-5.15 0.85,-2.07 22.94,15.57 29.77,16.12 6.83,0.55 6.46,5.81 1.02,7.29 z"
       style="opacity:0.4;isolation:isolate;fill:#ffffff"
       id="path3812"
       inkscape:connector-curvature="0" />
    <path
       d="m 165.16,112.83 a 0.25,0.25 0 0 1 -0.12,0 c -0.93,-0.33 -1.88,-0.64 -2.84,-0.93 a 0.38,0.38 0 0 1 -0.25,-0.47 0.38,0.38 0 0 1 0.47,-0.25 c 1,0.29 1.93,0.61 2.87,1 a 0.37,0.37 0 0 1 -0.13,0.72 z"
       style="fill:#fc6226"
       id="path3814"
       inkscape:connector-curvature="0" />
    <path
       d="m 104.72,194 a 0.38,0.38 0 0 1 -0.38,-0.37 0.38,0.38 0 0 1 0.37,-0.38 35.8,35.8 0 0 0 5.93,-0.58 0.38,0.38 0 0 1 0.44,0.3 0.37,0.37 0 0 1 -0.3,0.44 36.3,36.3 0 0 1 -6.06,0.59 z m -6,-0.32 v 0 a 51.69,51.69 0 0 1 -6,-1 0.38,0.38 0 0 1 -0.29,-0.45 0.38,0.38 0 0 1 0.45,-0.28 55.76,55.76 0 0 0 5.9,1 0.38,0.38 0 0 1 0,0.75 z m 17.77,-2 a 0.37,0.37 0 0 1 -0.34,-0.22 0.37,0.37 0 0 1 0.19,-0.5 19.44,19.44 0 0 0 5,-3.13 0.38,0.38 0 0 1 0.5,0.57 20.54,20.54 0 0 1 -5.19,3.25 0.4,0.4 0 0 1 -0.18,0.05 z M 87,191 a 0.25,0.25 0 0 1 -0.12,0 c -1.9,-0.63 -3.81,-1.37 -5.66,-2.18 a 0.38,0.38 0 0 1 0.31,-0.69 c 1.82,0.8 3.7,1.53 5.59,2.16 a 0.38,0.38 0 0 1 0.23,0.48 A 0.37,0.37 0 0 1 87,191 Z m -11,-4.86 a 0.31,0.31 0 0 1 -0.18,0 c -1.79,-1 -3.53,-2.08 -5.15,-3.21 a 0.37316216,0.37316216 0 1 1 0.43,-0.61 c 1.6,1.11 3.31,2.18 5.09,3.17 a 0.37,0.37 0 0 1 0.14,0.51 0.39,0.39 0 0 1 -0.4,0.17 z m 49.44,-2.29 a 0.31,0.31 0 0 1 -0.18,0 0.37,0.37 0 0 1 -0.14,-0.51 c 0.31,-0.54 0.6,-1.1 0.86,-1.68 a 20.62,20.62 0 0 0 1.3,-3.81 0.39,0.39 0 0 1 0.46,-0.28 0.38,0.38 0 0 1 0.27,0.46 22.33,22.33 0 0 1 -1.35,3.94 c -0.27,0.6 -0.57,1.19 -0.89,1.75 a 0.38,0.38 0 0 1 -0.4,0.16 z m -59.3,-4.62 a 0.38,0.38 0 0 1 -0.24,-0.09 43.51,43.51 0 0 1 -4.27,-4.34 0.38,0.38 0 0 1 0,-0.53 0.37,0.37 0 0 1 0.52,0 42.93,42.93 0 0 0 4.19,4.25 0.38,0.38 0 0 1 0,0.53 0.37,0.37 0 0 1 -0.27,0.21 z m 62.18,-6.94 a 0.37,0.37 0 0 1 -0.37,-0.38 35,35 0 0 0 -0.55,-5.93 0.38,0.38 0 0 1 0.3,-0.44 0.39,0.39 0 0 1 0.44,0.31 35.49,35.49 0 0 1 0.56,6.06 0.38,0.38 0 0 1 -0.38,0.38 z m -2,-11.86 a 0.38,0.38 0 0 1 -0.36,-0.27 c -0.51,-1.75 -1.14,-3.61 -1.91,-5.69 a 0.37,0.37 0 0 1 0.22,-0.49 0.38,0.38 0 0 1 0.48,0.22 c 0.78,2.1 1.41,4 1.93,5.74 a 0.38,0.38 0 0 1 -0.25,0.47 z m -4.14,-11.35 a 0.36,0.36 0 0 1 -0.33,-0.21 c -0.64,-1.6 -1.51,-3.44 -2.42,-5.39 v -0.1 a 0.38,0.38 0 0 1 0.68,-0.32 v 0.1 c 0.92,2 1.78,3.81 2.42,5.38 a 0.39,0.39 0 0 1 -0.2,0.51 z m -5,-11 a 0.37,0.37 0 0 1 -0.35,-0.22 c -0.9,-2.09 -1.62,-3.94 -2.19,-5.65 a 0.38,0.38 0 0 1 0.23,-0.48 0.38,0.38 0 0 1 0.48,0.24 c 0.56,1.69 1.27,3.52 2.17,5.59 a 0.37,0.37 0 0 1 -0.2,0.49 0.32,0.32 0 0 1 -0.12,0.08 z m -3.66,-11.46 a 0.38,0.38 0 0 1 -0.37,-0.32 20.66,20.66 0 0 1 -0.26,-3.24 14.79,14.79 0 0 1 0.26,-2.89 0.38,0.38 0 0 1 0.74,0.15 14,14 0 0 0 -0.25,2.74 20.56,20.56 0 0 0 0.25,3.13 0.39,0.39 0 0 1 -0.31,0.43 z m 2.61,-11.36 a 0.37,0.37 0 0 1 -0.24,-0.08 0.38,0.38 0 0 1 0,-0.53 16,16 0 0 1 4.81,-3.81 0.38,0.38 0 0 1 0.51,0.15 0.39,0.39 0 0 1 -0.16,0.51 15.24,15.24 0 0 0 -4.58,3.63 0.37,0.37 0 0 1 -0.32,0.18 z m 40.32,-4.9 h -0.08 c -1.92,-0.4 -3.91,-0.74 -5.92,-1 a 0.37,0.37 0 0 1 -0.32,-0.42 0.37,0.37 0 0 1 0.42,-0.32 c 2,0.26 4,0.6 6,1 a 0.38,0.38 0 0 1 -0.07,0.75 z m -30,-0.85 a 0.37215588,0.37215588 0 0 1 -0.08,-0.74 39.56,39.56 0 0 1 6,-0.87 0.38,0.38 0 0 1 0.4,0.35 0.37,0.37 0 0 1 -0.35,0.4 38,38 0 0 0 -5.9,0.85 z m 18,-0.7 v 0 c -1.74,-0.12 -3.81,-0.25 -6,-0.29 a 0.38,0.38 0 0 1 -0.37,-0.38 0.37,0.37 0 0 1 0.38,-0.37 c 2.21,0.05 4.3,0.17 6,0.29 a 0.37,0.37 0 0 1 0.35,0.4 0.38,0.38 0 0 1 -0.29,0.4 z"
       style="fill:#fc6226"
       id="path3816"
       inkscape:connector-curvature="0" />
    <path
       d="m 58.36,170 a 0.37,0.37 0 0 1 -0.33,-0.19 24.54,24.54 0 0 1 -1.35,-2.72 0.37,0.37 0 0 1 0.2,-0.49 0.38,0.38 0 0 1 0.49,0.2 25.88,25.88 0 0 0 1.31,2.64 0.36,0.36 0 0 1 -0.32,0.56 z"
       style="fill:#fc6226"
       id="path3818"
       inkscape:connector-curvature="0" />
  </g>
</svg>
